<?xml version="1.0" encoding="UTF-8"?>
<svg xmlns="http://www.w3.org/2000/svg" xmlns:xlink="http://www.w3.org/1999/xlink" width="50pt" height="50pt"
    viewBox="0 0 50 50" version="1.1">
    <g id="surface1">
        <path style=" stroke:none;fill-rule:nonzero;fill:#53c351;fill-opacity:1;"
            d="M 24.933594 3 C 22.78125 3.039063 21.199219 3.710938 20.222656 4.992188 C 19.117188 6.453125 18.878906 8.605469 19.515625 11.402344 C 19.277344 11.777344 19.125 12.285156 19.203125 12.917969 C 19.347656 14.125 19.8125 14.730469 20.253906 15.03125 C 20.457031 15.882813 20.894531 16.835938 21.402344 17.421875 L 21.402344 17.5 C 21.40625 18.015625 21.410156 18.464844 21.363281 19.023438 C 21.089844 19.542969 20.234375 19.917969 19.253906 20.355469 C 18.980469 20.472656 18.695313 20.597656 18.414063 20.734375 C 17.5625 19.933594 16.515625 19.464844 15.640625 19.078125 C 14.933594 18.765625 14.203125 18.441406 13.980469 18.09375 C 13.960938 17.761719 13.96875 17.476563 13.984375 17.15625 C 13.984375 17.085938 13.988281 17.015625 13.988281 16.941406 C 14.410156 16.464844 14.800781 15.738281 14.996094 15.046875 C 15.371094 14.765625 15.757813 14.234375 15.875 13.234375 C 15.9375 12.730469 15.832031 12.308594 15.652344 11.984375 C 15.9375 10.914063 16.339844 8.710938 15.402344 7.203125 C 14.976563 6.519531 14.335938 6.058594 13.527344 5.851563 C 13.09375 5.402344 12.324219 5 10.9375 5 C 9.140625 5.03125 7.808594 5.601563 6.984375 6.6875 C 6.0625 7.902344 5.851563 9.671875 6.359375 11.953125 C 6.171875 12.28125 6.058594 12.714844 6.117188 13.234375 C 6.238281 14.238281 6.621094 14.765625 7 15.046875 C 7.195313 15.738281 7.585938 16.464844 8.007813 16.941406 C 8.011719 17.015625 8.011719 17.085938 8.015625 17.15625 C 8.027344 17.476563 8.035156 17.761719 8.015625 18.09375 C 7.777344 18.449219 6.9375 18.835938 6.1875 19.175781 C 4.640625 19.882813 2.589844 20.820313 2.105469 23 L 47.898438 23 C 47.414063 20.648438 45.234375 19.714844 43.734375 19.074219 C 43.050781 18.78125 42.214844 18.425781 41.984375 18.089844 C 41.960938 17.761719 41.972656 17.476563 41.984375 17.15625 C 41.988281 17.085938 41.988281 17.015625 41.992188 16.941406 C 42.414063 16.464844 42.800781 15.738281 42.996094 15.046875 C 43.375 14.765625 43.757813 14.234375 43.878906 13.234375 C 43.941406 12.730469 43.832031 12.308594 43.65625 11.984375 C 43.9375 10.914063 44.34375 8.710938 43.40625 7.203125 C 42.980469 6.519531 42.339844 6.058594 41.53125 5.851563 C 41.09375 5.402344 40.324219 5 38.9375 5 C 37.140625 5.03125 35.808594 5.601563 34.984375 6.6875 C 34.0625 7.902344 33.851563 9.671875 34.359375 11.953125 C 34.171875 12.28125 34.058594 12.714844 34.121094 13.234375 C 34.238281 14.238281 34.621094 14.765625 35 15.046875 C 35.195313 15.738281 35.585938 16.464844 36.007813 16.941406 C 36.011719 17.015625 36.011719 17.085938 36.015625 17.15625 C 36.027344 17.476563 36.035156 17.761719 36.015625 18.09375 C 35.792969 18.441406 35.066406 18.765625 34.359375 19.078125 C 33.488281 19.46875 32.445313 19.933594 31.59375 20.730469 C 31.3125 20.597656 31.035156 20.472656 30.765625 20.351563 C 29.789063 19.917969 28.933594 19.539063 28.660156 19.023438 C 28.617188 18.464844 28.621094 18.011719 28.625 17.5 L 28.625 17.417969 C 29.125 16.835938 29.546875 15.890625 29.75 15.027344 C 30.1875 14.722656 30.652344 14.117188 30.796875 12.914063 C 30.867188 12.304688 30.730469 11.804688 30.5 11.433594 C 30.84375 10.179688 31.386719 7.449219 30.246094 5.609375 C 29.742188 4.804688 28.972656 4.261719 28 4.03125 C 27.515625 3.496094 26.609375 3 24.933594 3 Z M 2 25 L 2 47 L 48 47 L 48 25 Z M 9.550781 27 L 40.449219 27 C 40.613281 27 40.730469 27.019531 40.855469 27.042969 C 41.335938 27.140625 41.640625 27.433594 41.921875 27.941406 C 42.070313 28.214844 42.207031 28.53125 42.347656 28.859375 C 42.503906 29.214844 42.628906 29.585938 43.011719 29.96875 C 43.390625 30.347656 43.773438 30.480469 44.144531 30.628906 C 44.488281 30.769531 44.828125 30.894531 45.125 31.023438 C 45.226563 31.066406 45.304688 31.109375 45.390625 31.15625 C 45.460938 31.191406 45.535156 31.226563 45.59375 31.261719 C 45.839844 31.410156 46 31.566406 46 31.738281 L 46 40.261719 C 46 40.625 45.332031 40.910156 44.527344 41.21875 C 43.941406 41.441406 43.390625 41.652344 43.011719 42.03125 C 42.683594 42.363281 42.488281 42.808594 42.285156 43.28125 C 41.789063 44.449219 41.445313 45 40.449219 45 L 9.550781 45 C 8.554688 45 8.210938 44.449219 7.710938 43.28125 C 7.511719 42.808594 7.316406 42.363281 6.988281 42.03125 C 6.609375 41.65625 6.058594 41.445313 5.476563 41.21875 C 4.667969 40.910156 4 40.625 4 40.261719 L 4 31.738281 C 4 31.566406 4.160156 31.410156 4.40625 31.261719 C 4.464844 31.226563 4.539063 31.191406 4.609375 31.15625 C 4.695313 31.109375 4.773438 31.066406 4.875 31.023438 C 5.171875 30.894531 5.511719 30.769531 5.855469 30.628906 C 6.226563 30.480469 6.605469 30.347656 6.984375 29.96875 C 7.367188 29.585938 7.496094 29.214844 7.648438 28.859375 C 7.792969 28.527344 7.929688 28.210938 8.085938 27.9375 C 8.363281 27.433594 8.664063 27.140625 9.148438 27.042969 C 9.269531 27.019531 9.386719 27 9.550781 27 Z M 25 29 C 21.140625 29 18 32.140625 18 36 C 18 39.859375 21.140625 43 25 43 C 28.859375 43 32 39.859375 32 36 C 32 32.140625 28.859375 29 25 29 Z M 11 34 C 9.90625 34 9 34.90625 9 36 C 9 37.09375 9.90625 38 11 38 C 12.09375 38 13 37.09375 13 36 C 13 34.90625 12.09375 34 11 34 Z M 39 34 C 37.90625 34 37 34.90625 37 36 C 37 37.09375 37.90625 38 39 38 C 40.09375 38 41 37.09375 41 36 C 41 34.90625 40.09375 34 39 34 Z " />
    </g>
</svg>