<?xml version="1.0" encoding="UTF-8"?>
<svg xmlns="http://www.w3.org/2000/svg" xmlns:xlink="http://www.w3.org/1999/xlink" width="64pt" height="64pt" viewBox="0 0 64 64" version="1.1">
<g id="surface1">
<path style=" stroke:none;fill-rule:nonzero;fill:#000000;fill-opacity:1;" d="M 55 0 C 50.039063 0 46 4.039063 46 9 C 46 11.070313 46.699219 12.980469 47.878906 14.5 L 43.609375 18.410156 C 40.890625 15.691406 37.140625 14 33 14 C 28.289063 14 24.078125 16.179688 21.328125 19.597656 L 17.347656 16.488281 C 16.917969 16.140625 16.289063 16.21875 15.949219 16.660156 C 15.609375 17.089844 15.6875 17.71875 16.121094 18.0625 L 20.171875 21.230469 C 18.789063 23.5 18 26.148438 18 29 C 18 31.121094 18.441406 33.140625 19.238281 34.960938 L 11.140625 38.519531 C 10.410156 37.589844 9.269531 37 8 37 C 5.789063 37 4 38.789063 4 41 C 4 43.210938 5.789063 45 8 45 C 10.210938 45 12 43.210938 12 41 C 12 40.78125 11.980469 40.570313 11.9375 40.359375 L 20.160156 36.75 C 22.628906 40.820313 26.980469 43.632813 32 43.960938 L 32 50 C 32 50.550781 32.449219 51 33 51 C 33.550781 51 34 50.550781 34 50 L 34 43.960938 C 37.671875 43.722656 40.96875 42.160156 43.449219 39.75 L 47.480469 43.378906 C 46.550781 44.679688 46 46.28125 46 48 C 46 52.410156 49.589844 56 54 56 C 58.410156 56 62 52.410156 62 48 C 62 43.589844 58.410156 40 54 40 C 52.03125 40 50.21875 40.71875 48.828125 41.910156 L 44.78125 38.261719 C 46.800781 35.710938 48 32.5 48 29 C 48 25.589844 46.859375 22.441406 44.929688 19.921875 L 49.28125 15.9375 C 50.839844 17.230469 52.828125 18 55 18 C 59.960938 18 64 13.960938 64 9 C 64 4.039063 59.960938 0 55 0 Z M 55 2 C 58.859375 2 62 5.140625 62 9 C 62 12.859375 58.859375 16 55 16 C 53.410156 16 51.949219 15.46875 50.769531 14.570313 C 50.230469 14.171875 49.757813 13.679688 49.359375 13.140625 C 48.5 11.980469 48 10.550781 48 9 C 48 5.140625 51.140625 2 55 2 Z M 10 6 C 6.691406 6 4 8.691406 4 12 C 4 15.308594 6.691406 18 10 18 C 13.308594 18 16 15.308594 16 12 C 16 8.691406 13.308594 6 10 6 Z M 10 8 C 12.207031 8 14 9.792969 14 12 C 14 14.207031 12.207031 16 10 16 C 7.792969 16 6 14.207031 6 12 C 6 9.792969 7.792969 8 10 8 Z M 33 16 C 36.558594 16 39.789063 17.441406 42.140625 19.761719 C 42.621094 20.230469 43.058594 20.738281 43.449219 21.28125 C 45.050781 23.4375 46 26.121094 46 29 C 46 31.96875 44.992188 34.71875 43.300781 36.921875 C 42.902344 37.449219 42.449219 37.949219 41.960938 38.410156 C 39.859375 40.421875 37.070313 41.730469 34 41.960938 C 33.671875 41.992188 33.339844 42 33 42 C 32.660156 42 32.328125 41.992188 32 41.960938 C 27.789063 41.640625 24.140625 39.308594 22.011719 35.929688 C 21.648438 35.371094 21.332031 34.769531 21.0625 34.160156 C 20.378906 32.570313 20 30.828125 20 29 C 20 26.628906 20.640625 24.402344 21.761719 22.480469 C 22.089844 21.902344 22.46875 21.351563 22.902344 20.828125 C 25.28125 17.890625 28.921875 16 33 16 Z M 33 20 C 32.445313 20 32 20.449219 32 21 L 32 22 C 29.792969 22 28 23.792969 28 26 C 28 28.207031 29.792969 30 32 30 L 34 30 C 35.101563 30 36 30.898438 36 32 C 36 33.101563 35.101563 34 34 34 L 34 32 C 34 31.449219 33.554688 31 33 31 C 32.445313 31 32 31.449219 32 32 L 32 34 C 30.898438 34 30 33.101563 30 32 C 30 31.449219 29.554688 31 29 31 C 28.445313 31 28 31.449219 28 32 C 28 34.207031 29.792969 36 32 36 L 32 37 C 32 37.550781 32.445313 38 33 38 C 33.554688 38 34 37.550781 34 37 L 34 36 C 36.207031 36 38 34.207031 38 32 C 38 29.792969 36.207031 28 34 28 L 34 26 C 34 25.449219 33.554688 25 33 25 C 32.445313 25 32 25.449219 32 26 L 32 28 C 30.898438 28 30 27.101563 30 26 C 30 24.898438 30.898438 24 32 24 L 34 24 C 35.101563 24 36 24.898438 36 26 C 36 26.550781 36.445313 27 37 27 C 37.554688 27 38 26.550781 38 26 C 38 23.792969 36.207031 22 34 22 L 34 21 C 34 20.449219 33.554688 20 33 20 Z M 8 39 C 8.441406 39 8.851563 39.140625 9.179688 39.390625 C 9.679688 39.75 10 40.339844 10 41 C 10 41.078125 10 41.152344 9.992188 41.21875 C 9.878906 42.21875 9.019531 43 8 43 C 6.898438 43 6 42.101563 6 41 C 6 39.898438 6.898438 39 8 39 Z M 54 42 C 57.308594 42 60 44.691406 60 48 C 60 51.308594 57.308594 54 54 54 C 50.691406 54 48 51.308594 48 48 C 48 46.789063 48.359375 45.660156 48.980469 44.71875 C 49.339844 44.160156 49.800781 43.660156 50.328125 43.261719 C 51.339844 42.46875 52.621094 42 54 42 Z M 33 53 C 30.242188 53 28 55.242188 28 58 C 28 60.757813 30.242188 63 33 63 C 35.757813 63 38 60.757813 38 58 C 38 55.242188 35.757813 53 33 53 Z M 33 55 C 34.652344 55 36 56.347656 36 58 C 36 59.652344 34.652344 61 33 61 C 31.347656 61 30 59.652344 30 58 C 30 56.347656 31.347656 55 33 55 Z "/>
</g>
</svg>
