<?xml version="1.0" encoding="UTF-8"?>
<svg xmlns="http://www.w3.org/2000/svg" xmlns:xlink="http://www.w3.org/1999/xlink" width="64pt" height="64pt"
    viewBox="0 0 64 64" version="1.1">
    <g id="surface1">
        <path style=" stroke:none;fill-rule:nonzero;fill:#53c351;fill-opacity:1;"
            d="M 23.011719 4.988281 C 22.621094 4.980469 22.261719 5.199219 22.09375 5.546875 C 21.921875 5.898438 21.96875 6.316406 22.214844 6.617188 C 22.214844 6.617188 25.050781 10.230469 27.933594 13.902344 C 29.371094 15.738281 30.824219 17.589844 31.9375 19.015625 C 32.496094 19.726563 32.96875 20.332031 33.3125 20.773438 C 33.65625 21.214844 33.910156 21.546875 33.902344 21.53125 C 37.035156 25.835938 36.667969 31.890625 32.777344 35.78125 C 31.84375 36.714844 30.785156 37.4375 29.65625 37.96875 C 29.617188 37.984375 29.578125 38.003906 29.542969 38.023438 C 25.992188 39.632813 21.765625 39.257813 18.53125 36.902344 C 18.539063 36.90625 18.214844 36.65625 17.773438 36.3125 C 17.332031 35.96875 16.726563 35.496094 16.015625 34.9375 C 14.589844 33.824219 12.738281 32.371094 10.902344 30.933594 C 7.230469 28.050781 3.617188 25.214844 3.617188 25.214844 C 3.183594 24.871094 2.554688 24.949219 2.210938 25.382813 C 1.871094 25.816406 1.949219 26.445313 2.382813 26.785156 C 2.382813 26.785156 5.996094 29.625 9.667969 32.503906 C 11.503906 33.945313 13.355469 35.398438 14.78125 36.515625 C 15.492188 37.070313 16.097656 37.542969 16.542969 37.890625 C 16.988281 38.238281 17.21875 38.421875 17.355469 38.515625 C 19.359375 39.976563 21.683594 40.78125 24.046875 40.953125 C 24.550781 50.988281 32.839844 59 43 59 C 53.480469 59 62 50.480469 62 40 C 62 29.847656 54 21.558594 43.972656 21.046875 C 43.851563 17.9375 43.132813 14.875 41.84375 12.035156 L 38.910156 5.585938 C 38.746094 5.207031 38.363281 4.972656 37.953125 4.988281 C 37.617188 5.003906 37.3125 5.183594 37.140625 5.46875 C 36.964844 5.757813 36.945313 6.109375 37.089844 6.414063 L 40.019531 12.863281 C 41.195313 15.445313 41.851563 18.222656 41.972656 21.050781 C 40.09375 21.152344 38.289063 21.523438 36.59375 22.128906 C 36.28125 21.519531 35.929688 20.921875 35.515625 20.359375 L 35.515625 20.355469 C 35.417969 20.21875 35.234375 19.988281 34.890625 19.546875 C 34.542969 19.101563 34.070313 18.492188 33.515625 17.78125 C 32.398438 16.355469 30.945313 14.503906 29.503906 12.667969 C 26.621094 8.992188 23.785156 5.382813 23.785156 5.382813 C 23.601563 5.140625 23.316406 4.992188 23.011719 4.988281 Z M 22.421875 15 C 21.414063 15 20.429688 15.304688 19.597656 15.878906 L 19.59375 15.878906 C 18.410156 16.695313 17.195313 17.734375 15.964844 18.964844 C 15.832031 19.09375 15.730469 19.207031 15.640625 19.296875 C 15.253906 19.691406 15.257813 20.324219 15.652344 20.710938 C 16.046875 21.097656 16.679688 21.09375 17.066406 20.699219 C 17.191406 20.574219 17.289063 20.464844 17.378906 20.375 C 18.539063 19.21875 19.667969 18.257813 20.730469 17.527344 C 21.234375 17.179688 21.816406 17 22.421875 17 C 23.347656 17 24.191406 17.40625 24.773438 18.125 C 26.984375 20.875 28.25 22.445313 28.964844 23.339844 C 29.675781 24.226563 29.882813 24.488281 29.859375 24.453125 C 30.285156 25.042969 30.589844 25.691406 30.773438 26.367188 C 31.328125 28.402344 30.789063 30.683594 29.238281 32.234375 C 28.230469 33.242188 26.960938 33.847656 25.59375 33.984375 L 25.589844 33.988281 C 25.390625 34.007813 25.183594 34.019531 24.976563 34.019531 C 23.710938 34.019531 22.507813 33.625 21.488281 32.882813 C 21.515625 32.902344 20.625 32.203125 15.125 27.777344 C 14.09375 26.945313 13.761719 25.542969 14.214844 24.359375 C 14.351563 24.019531 14.300781 23.636719 14.074219 23.351563 C 13.847656 23.066406 13.480469 22.925781 13.121094 22.988281 C 12.761719 23.046875 12.464844 23.296875 12.34375 23.640625 C 11.589844 25.625 12.152344 27.949219 13.875 29.332031 C 19.378906 33.765625 20.085938 34.332031 20.296875 34.488281 L 20.304688 34.496094 L 20.3125 34.5 C 21.667969 35.488281 23.292969 36.019531 24.976563 36.019531 C 25.25 36.019531 25.523438 36.003906 25.796875 35.976563 C 27.625 35.789063 29.328125 34.972656 30.652344 33.652344 C 32.726563 31.574219 33.441406 28.558594 32.703125 25.84375 L 32.703125 25.839844 C 32.457031 24.933594 32.046875 24.0625 31.46875 23.269531 L 31.46875 23.265625 L 31.464844 23.261719 C 31.378906 23.148438 31.242188 22.980469 30.527344 22.085938 C 29.808594 21.191406 28.542969 19.617188 26.332031 16.871094 C 25.378906 15.6875 23.945313 15 22.421875 15 Z M 42.894531 23.003906 C 42.96875 23.015625 43.042969 23.015625 43.113281 23.003906 C 52.460938 23.070313 60 30.636719 60 40 C 60 49.402344 52.402344 57 43 57 C 33.921875 57 26.542969 49.90625 26.046875 40.953125 C 27.054688 40.871094 28.050781 40.667969 29.015625 40.355469 C 29.207031 47.910156 35.398438 54 43 54 C 50.71875 54 57 47.71875 57 40 C 57 36.605469 55.78125 33.492188 53.769531 31.074219 C 53.578125 30.835938 53.289063 30.695313 52.984375 30.699219 C 52.59375 30.703125 52.242188 30.929688 52.082031 31.285156 C 51.917969 31.636719 51.976563 32.054688 52.230469 32.347656 C 53.957031 34.429688 55 37.085938 55 40 C 55 46.640625 49.640625 52 43 52 C 36.359375 52 31 46.640625 31 40 C 31 39.835938 31.011719 39.675781 31.019531 39.511719 C 32.160156 38.914063 33.234375 38.152344 34.191406 37.191406 C 36.4375 34.949219 37.683594 32.078125 37.941406 29.136719 C 39.480469 28.417969 41.1875 28 43 28 C 43.289063 28 43.59375 28.023438 43.921875 28.046875 C 44.472656 28.09375 44.953125 27.679688 44.996094 27.128906 C 45.039063 26.578125 44.628906 26.097656 44.078125 26.054688 C 43.746094 26.027344 43.386719 26 43 26 C 41.21875 26 39.515625 26.339844 37.949219 26.949219 C 37.867188 25.945313 37.664063 24.949219 37.351563 23.984375 C 39.089844 23.371094 40.945313 23.019531 42.894531 23.003906 Z M 47.996094 27 C 47.515625 26.996094 47.101563 27.335938 47.007813 27.804688 C 46.914063 28.277344 47.167969 28.75 47.613281 28.925781 C 48.257813 29.195313 48.871094 29.527344 49.460938 29.90625 C 49.925781 30.203125 50.546875 30.066406 50.84375 29.601563 C 51.140625 29.136719 51.003906 28.515625 50.539063 28.21875 C 49.863281 27.785156 49.144531 27.398438 48.386719 27.082031 C 48.261719 27.027344 48.128906 27 47.996094 27 Z M 43 30 C 42.449219 30 42 30.449219 42 31 L 42 32 C 39.789063 32 38 33.789063 38 36 L 38 37 C 38 39.210938 39.789063 41 42 41 L 44 41 C 45.105469 41 46 41.894531 46 43 L 46 44 C 46 45.105469 45.105469 46 44 46 L 44 43 C 44 42.449219 43.550781 42 43 42 C 42.449219 42 42 42.449219 42 43 L 42 46 C 40.894531 46 40 45.105469 40 44 C 40 43.449219 39.550781 43 39 43 C 38.449219 43 38 43.449219 38 44 C 38 46.210938 39.789063 48 42 48 L 42 49 C 42 49.550781 42.449219 50 43 50 C 43.550781 50 44 49.550781 44 49 L 44 48 C 46.210938 48 48 46.210938 48 44 L 48 43 C 48 40.789063 46.210938 39 44 39 L 44 36 C 44 35.449219 43.550781 35 43 35 C 42.449219 35 42 35.449219 42 36 L 42 39 C 40.894531 39 40 38.105469 40 37 L 40 36 C 40 34.894531 40.894531 34 42 34 L 44 34 C 45.105469 34 46 34.894531 46 36 C 46 36.550781 46.449219 37 47 37 C 47.550781 37 48 36.550781 48 36 C 48 33.789063 46.210938 32 44 32 L 44 31 C 44 30.449219 43.550781 30 43 30 Z " />
    </g>
</svg>