<?xml version="1.0" encoding="UTF-8"?>
<svg xmlns="http://www.w3.org/2000/svg" xmlns:xlink="http://www.w3.org/1999/xlink" width="80pt" height="80pt" viewBox="0 0 80 80" version="1.1">
<g id="surface1">
<path style=" stroke:none;fill-rule:nonzero;fill:#000000;fill-opacity:1;" d="M 40 8 C 33.570313 8 28.632813 9.953125 28.632813 9.953125 L 27.578125 10.375 L 28.652344 12.332031 C 26.042969 13.140625 24.425781 14.265625 24.425781 14.265625 L 24 14.5625 L 24 15.085938 C 24 17.503906 26.019531 19.503906 27.839844 21.109375 C 28.691406 21.855469 29.523438 22.488281 30.1875 22.96875 C 24.992188 26.324219 19.734375 31.660156 15.613281 37.503906 C 11.148438 43.84375 8 50.730469 8 56.460938 C 8 63.238281 11.320313 67.628906 16.933594 70.003906 C 22.546875 72.378906 30.386719 73 40 73 C 49.613281 73 57.453125 72.378906 63.066406 70.003906 C 68.679688 67.628906 72 63.238281 72 56.460938 C 72 50.730469 68.851563 43.84375 64.386719 37.503906 C 60.265625 31.660156 55.007813 26.324219 49.8125 22.96875 C 50.476563 22.488281 51.308594 21.855469 52.160156 21.109375 C 53.980469 19.503906 56 17.503906 56 15.085938 L 56 14.5625 L 55.574219 14.265625 C 55.574219 14.265625 53.957031 13.140625 51.347656 12.332031 L 52.421875 10.375 L 51.371094 9.953125 C 51.371094 9.953125 46.449219 8 40 8 Z M 40 10 C 44.957031 10 48.257813 11.046875 49.53125 11.484375 L 43.78125 22 L 36.21875 22 L 30.46875 11.488281 C 31.746094 11.046875 35.058594 10 40 10 Z M 29.640625 14.140625 L 33.9375 22 L 32.328125 22 C 32.140625 21.878906 30.738281 20.996094 29.160156 19.609375 C 27.664063 18.289063 26.480469 16.667969 26.207031 15.546875 C 26.78125 15.203125 27.867188 14.636719 29.640625 14.140625 Z M 50.359375 14.140625 C 52.132813 14.636719 53.21875 15.203125 53.792969 15.546875 C 53.519531 16.667969 52.335938 18.289063 50.839844 19.609375 C 49.261719 20.996094 47.859375 21.878906 47.671875 22 L 46.0625 22 Z M 33.4375 24 L 47.691406 24 C 52.878906 27.074219 58.480469 32.597656 62.75 38.65625 C 67.074219 44.792969 70 51.484375 70 56.460938 C 70 62.625 67.390625 66.003906 62.285156 68.160156 C 57.183594 70.320313 49.523438 71 40 71 C 30.476563 71 22.816406 70.320313 17.714844 68.160156 C 12.609375 66.003906 10 62.625 10 56.460938 C 10 51.484375 12.925781 44.792969 17.25 38.65625 C 19.515625 35.441406 22.160156 32.390625 24.917969 29.761719 C 23.621094 31.851563 22.421875 34.414063 21.574219 37.5625 C 21.464844 37.910156 21.554688 38.292969 21.808594 38.558594 C 22.066406 38.820313 22.445313 38.921875 22.800781 38.824219 C 23.152344 38.722656 23.421875 38.4375 23.503906 38.078125 C 24.886719 32.9375 27.234375 29.5625 29.304688 27.339844 C 27.972656 30.535156 26.699219 35.339844 26.699219 42.378906 C 26.695313 42.742188 26.882813 43.078125 27.195313 43.257813 C 27.507813 43.441406 27.890625 43.441406 28.203125 43.257813 C 28.515625 43.078125 28.703125 42.742188 28.699219 42.378906 C 28.699219 35.34375 30 30.640625 31.265625 27.71875 C 32.1875 25.59375 33.039063 24.46875 33.4375 24 Z M 38.984375 33.699219 L 38.984375 35.820313 C 34.835938 36.203125 32.316406 38.554688 32.316406 42.105469 C 32.316406 45.101563 34.191406 47.160156 37.617188 48.035156 L 38.984375 48.390625 L 38.984375 55.394531 C 36.695313 55.136719 35.21875 53.859375 35.066406 52.03125 L 31.8125 52.03125 C 31.824219 55.597656 34.589844 58.007813 38.984375 58.300781 L 38.984375 60.296875 L 41.089844 60.296875 L 41.089844 58.28125 C 45.59375 57.898438 48.1875 55.546875 48.1875 51.78125 C 48.1875 48.601563 46.375 46.652344 42.519531 45.714844 L 41.089844 45.390625 L 41.089844 38.769531 C 43.117188 39.015625 44.5 40.335938 44.5625 42.027344 L 47.773438 42.027344 C 47.679688 38.601563 45.070313 36.175781 41.089844 35.820313 L 41.089844 33.699219 Z M 38.984375 38.753906 L 38.984375 44.949219 C 36.773438 44.503906 35.605469 43.410156 35.605469 41.828125 C 35.605469 40.152344 37.019531 38.863281 38.984375 38.753906 Z M 41.09375 48.789063 C 43.703125 49.3125 44.917969 50.371094 44.917969 52.140625 C 44.917969 54.089844 43.519531 55.289063 41.09375 55.425781 Z M 15 61 C 14.449219 61 14 61.449219 14 62 C 14 62.550781 14.449219 63 15 63 C 15.550781 63 16 62.550781 16 62 C 16 61.449219 15.550781 61 15 61 Z M 65 61 C 64.449219 61 64 61.449219 64 62 C 64 62.550781 64.449219 63 65 63 C 65.550781 63 66 62.550781 66 62 C 66 61.449219 65.550781 61 65 61 Z M 18 64 C 17.449219 64 17 64.449219 17 65 C 17 65.550781 17.449219 66 18 66 C 18.550781 66 19 65.550781 19 65 C 19 64.449219 18.550781 64 18 64 Z M 62 64 C 61.449219 64 61 64.449219 61 65 C 61 65.550781 61.449219 66 62 66 C 62.550781 66 63 65.550781 63 65 C 63 64.449219 62.550781 64 62 64 Z M 22 65 C 21.449219 65 21 65.449219 21 66 C 21 66.550781 21.449219 67 22 67 C 22.550781 67 23 66.550781 23 66 C 23 65.449219 22.550781 65 22 65 Z M 58 65 C 57.449219 65 57 65.449219 57 66 C 57 66.550781 57.449219 67 58 67 C 58.550781 67 59 66.550781 59 66 C 59 65.449219 58.550781 65 58 65 Z M 26 66 C 25.449219 66 25 66.449219 25 67 C 25 67.550781 25.449219 68 26 68 C 26.550781 68 27 67.550781 27 67 C 27 66.449219 26.550781 66 26 66 Z M 30 66 C 29.449219 66 29 66.449219 29 67 C 29 67.550781 29.449219 68 30 68 C 30.550781 68 31 67.550781 31 67 C 31 66.449219 30.550781 66 30 66 Z M 34 66 C 33.449219 66 33 66.449219 33 67 C 33 67.550781 33.449219 68 34 68 C 34.550781 68 35 67.550781 35 67 C 35 66.449219 34.550781 66 34 66 Z M 38 66 C 37.449219 66 37 66.449219 37 67 C 37 67.550781 37.449219 68 38 68 C 38.550781 68 39 67.550781 39 67 C 39 66.449219 38.550781 66 38 66 Z M 42 66 C 41.449219 66 41 66.449219 41 67 C 41 67.550781 41.449219 68 42 68 C 42.550781 68 43 67.550781 43 67 C 43 66.449219 42.550781 66 42 66 Z M 46 66 C 45.449219 66 45 66.449219 45 67 C 45 67.550781 45.449219 68 46 68 C 46.550781 68 47 67.550781 47 67 C 47 66.449219 46.550781 66 46 66 Z M 50 66 C 49.449219 66 49 66.449219 49 67 C 49 67.550781 49.449219 68 50 68 C 50.550781 68 51 67.550781 51 67 C 51 66.449219 50.550781 66 50 66 Z M 54 66 C 53.449219 66 53 66.449219 53 67 C 53 67.550781 53.449219 68 54 68 C 54.550781 68 55 67.550781 55 67 C 55 66.449219 54.550781 66 54 66 Z "/>
</g>
</svg>
