<?xml version="1.0" standalone="no"?>
<svg xmlns:xlink="http://www.w3.org/1999/xlink" id="wave" style="transform:rotate(0deg); transition: 0.3s" viewBox="0 0 1440 490" version="1.1" xmlns="http://www.w3.org/2000/svg"><defs><linearGradient id="sw-gradient-0" x1="0" x2="0" y1="1" y2="0"><stop stop-color="rgba(242, 243, 250, 1)" offset="0%"/><stop stop-color="rgba(242, 243, 250, 1)" offset="100%"/></linearGradient></defs><path style="transform:translate(0, 0px); opacity:1" fill="url(#sw-gradient-0)" d="M0,441L60,441C120,441,240,441,360,432.8C480,425,600,408,720,408.3C840,408,960,425,1080,432.8C1200,441,1320,441,1440,392C1560,343,1680,245,1800,245C1920,245,2040,343,2160,351.2C2280,359,2400,278,2520,245C2640,212,2760,229,2880,196C3000,163,3120,82,3240,106.2C3360,131,3480,261,3600,310.3C3720,359,3840,327,3960,261.3C4080,196,4200,98,4320,81.7C4440,65,4560,131,4680,155.2C4800,180,4920,163,5040,138.8C5160,114,5280,82,5400,122.5C5520,163,5640,278,5760,318.5C5880,359,6000,327,6120,334.8C6240,343,6360,392,6480,392C6600,392,6720,343,6840,269.5C6960,196,7080,98,7200,89.8C7320,82,7440,163,7560,212.3C7680,261,7800,278,7920,245C8040,212,8160,131,8280,98C8400,65,8520,82,8580,89.8L8640,98L8640,490L8580,490C8520,490,8400,490,8280,490C8160,490,8040,490,7920,490C7800,490,7680,490,7560,490C7440,490,7320,490,7200,490C7080,490,6960,490,6840,490C6720,490,6600,490,6480,490C6360,490,6240,490,6120,490C6000,490,5880,490,5760,490C5640,490,5520,490,5400,490C5280,490,5160,490,5040,490C4920,490,4800,490,4680,490C4560,490,4440,490,4320,490C4200,490,4080,490,3960,490C3840,490,3720,490,3600,490C3480,490,3360,490,3240,490C3120,490,3000,490,2880,490C2760,490,2640,490,2520,490C2400,490,2280,490,2160,490C2040,490,1920,490,1800,490C1680,490,1560,490,1440,490C1320,490,1200,490,1080,490C960,490,840,490,720,490C600,490,480,490,360,490C240,490,120,490,60,490L0,490Z"/><defs><linearGradient id="sw-gradient-1" x1="0" x2="0" y1="1" y2="0"><stop stop-color="rgba(255, 255, 255, 1)" offset="0%"/><stop stop-color="rgba(242, 243, 250, 1)" offset="100%"/></linearGradient></defs><path style="transform:translate(0, 50px); opacity:0.9" fill="url(#sw-gradient-1)" d="M0,441L60,383.8C120,327,240,212,360,187.8C480,163,600,229,720,269.5C840,310,960,327,1080,310.3C1200,294,1320,245,1440,245C1560,245,1680,294,1800,294C1920,294,2040,245,2160,236.8C2280,229,2400,261,2520,245C2640,229,2760,163,2880,171.5C3000,180,3120,261,3240,269.5C3360,278,3480,212,3600,196C3720,180,3840,212,3960,204.2C4080,196,4200,147,4320,106.2C4440,65,4560,33,4680,81.7C4800,131,4920,261,5040,326.7C5160,392,5280,392,5400,326.7C5520,261,5640,131,5760,98C5880,65,6000,131,6120,179.7C6240,229,6360,261,6480,236.8C6600,212,6720,131,6840,114.3C6960,98,7080,147,7200,179.7C7320,212,7440,229,7560,212.3C7680,196,7800,147,7920,138.8C8040,131,8160,163,8280,187.8C8400,212,8520,229,8580,236.8L8640,245L8640,490L8580,490C8520,490,8400,490,8280,490C8160,490,8040,490,7920,490C7800,490,7680,490,7560,490C7440,490,7320,490,7200,490C7080,490,6960,490,6840,490C6720,490,6600,490,6480,490C6360,490,6240,490,6120,490C6000,490,5880,490,5760,490C5640,490,5520,490,5400,490C5280,490,5160,490,5040,490C4920,490,4800,490,4680,490C4560,490,4440,490,4320,490C4200,490,4080,490,3960,490C3840,490,3720,490,3600,490C3480,490,3360,490,3240,490C3120,490,3000,490,2880,490C2760,490,2640,490,2520,490C2400,490,2280,490,2160,490C2040,490,1920,490,1800,490C1680,490,1560,490,1440,490C1320,490,1200,490,1080,490C960,490,840,490,720,490C600,490,480,490,360,490C240,490,120,490,60,490L0,490Z"/></svg>