<?xml version="1.0" standalone="no"?><svg xmlns="http://www.w3.org/2000/svg" viewBox="0 0 1440 320"><path fill="#f2f3fa" fill-opacity="1" d="M0,256L34.3,234.7C68.6,213,137,171,206,170.7C274.3,171,343,213,411,202.7C480,192,549,128,617,138.7C685.7,149,754,235,823,234.7C891.4,235,960,149,1029,96C1097.1,43,1166,21,1234,26.7C1302.9,32,1371,64,1406,80L1440,96L1440,320L1405.7,320C1371.4,320,1303,320,1234,320C1165.7,320,1097,320,1029,320C960,320,891,320,823,320C754.3,320,686,320,617,320C548.6,320,480,320,411,320C342.9,320,274,320,206,320C137.1,320,69,320,34,320L0,320Z"></path></svg>