<?xml version="1.0" standalone="no"?>
<svg xmlns:xlink="http://www.w3.org/1999/xlink" id="wave" style="transform:rotate(0deg); transition: 0.3s" viewBox="0 0 1440 490" version="1.1" xmlns="http://www.w3.org/2000/svg"><defs><linearGradient id="sw-gradient-0" x1="0" x2="0" y1="1" y2="0"><stop stop-color="rgba(242, 243, 250, 1)" offset="0%"/><stop stop-color="rgba(242, 243, 250, 1)" offset="100%"/></linearGradient></defs><path style="transform:translate(0, 0px); opacity:1" fill="url(#sw-gradient-0)" d="M0,147L60,171.5C120,196,240,245,360,236.8C480,229,600,163,720,155.2C840,147,960,196,1080,253.2C1200,310,1320,376,1440,400.2C1560,425,1680,408,1800,383.8C1920,359,2040,327,2160,285.8C2280,245,2400,196,2520,171.5C2640,147,2760,147,2880,196C3000,245,3120,343,3240,392C3360,441,3480,441,3600,424.7C3720,408,3840,376,3960,310.3C4080,245,4200,147,4320,89.8C4440,33,4560,16,4680,40.8C4800,65,4920,131,5040,196C5160,261,5280,327,5400,343C5520,359,5640,327,5760,302.2C5880,278,6000,261,6120,277.7C6240,294,6360,343,6480,351.2C6600,359,6720,327,6840,334.8C6960,343,7080,392,7200,400.2C7320,408,7440,376,7560,367.5C7680,359,7800,376,7920,383.8C8040,392,8160,392,8280,392C8400,392,8520,392,8580,392L8640,392L8640,490L8580,490C8520,490,8400,490,8280,490C8160,490,8040,490,7920,490C7800,490,7680,490,7560,490C7440,490,7320,490,7200,490C7080,490,6960,490,6840,490C6720,490,6600,490,6480,490C6360,490,6240,490,6120,490C6000,490,5880,490,5760,490C5640,490,5520,490,5400,490C5280,490,5160,490,5040,490C4920,490,4800,490,4680,490C4560,490,4440,490,4320,490C4200,490,4080,490,3960,490C3840,490,3720,490,3600,490C3480,490,3360,490,3240,490C3120,490,3000,490,2880,490C2760,490,2640,490,2520,490C2400,490,2280,490,2160,490C2040,490,1920,490,1800,490C1680,490,1560,490,1440,490C1320,490,1200,490,1080,490C960,490,840,490,720,490C600,490,480,490,360,490C240,490,120,490,60,490L0,490Z"/><defs><linearGradient id="sw-gradient-1" x1="0" x2="0" y1="1" y2="0"><stop stop-color="rgba(255, 255, 255, 1)" offset="0%"/><stop stop-color="rgba(242, 243, 250, 1)" offset="100%"/></linearGradient></defs><path style="transform:translate(0, 50px); opacity:0.9" fill="url(#sw-gradient-1)" d="M0,147L60,163.3C120,180,240,212,360,196C480,180,600,114,720,98C840,82,960,114,1080,155.2C1200,196,1320,245,1440,253.2C1560,261,1680,229,1800,245C1920,261,2040,327,2160,294C2280,261,2400,131,2520,138.8C2640,147,2760,294,2880,294C3000,294,3120,147,3240,122.5C3360,98,3480,196,3600,196C3720,196,3840,98,3960,57.2C4080,16,4200,33,4320,40.8C4440,49,4560,49,4680,65.3C4800,82,4920,114,5040,138.8C5160,163,5280,180,5400,204.2C5520,229,5640,261,5760,236.8C5880,212,6000,131,6120,81.7C6240,33,6360,16,6480,24.5C6600,33,6720,65,6840,89.8C6960,114,7080,131,7200,163.3C7320,196,7440,245,7560,220.5C7680,196,7800,98,7920,49C8040,0,8160,0,8280,65.3C8400,131,8520,261,8580,326.7L8640,392L8640,490L8580,490C8520,490,8400,490,8280,490C8160,490,8040,490,7920,490C7800,490,7680,490,7560,490C7440,490,7320,490,7200,490C7080,490,6960,490,6840,490C6720,490,6600,490,6480,490C6360,490,6240,490,6120,490C6000,490,5880,490,5760,490C5640,490,5520,490,5400,490C5280,490,5160,490,5040,490C4920,490,4800,490,4680,490C4560,490,4440,490,4320,490C4200,490,4080,490,3960,490C3840,490,3720,490,3600,490C3480,490,3360,490,3240,490C3120,490,3000,490,2880,490C2760,490,2640,490,2520,490C2400,490,2280,490,2160,490C2040,490,1920,490,1800,490C1680,490,1560,490,1440,490C1320,490,1200,490,1080,490C960,490,840,490,720,490C600,490,480,490,360,490C240,490,120,490,60,490L0,490Z"/></svg>