<?xml version="1.0" standalone="no"?>
<svg xmlns:xlink="http://www.w3.org/1999/xlink" id="wave" style="transform:rotate(180deg); transition: 0.3s" viewBox="0 0 1440 490" version="1.1" xmlns="http://www.w3.org/2000/svg"><defs><linearGradient id="sw-gradient-0" x1="0" x2="0" y1="1" y2="0"><stop stop-color="rgba(242, 243, 250, 1)" offset="0%"/><stop stop-color="rgba(242, 243, 250, 1)" offset="100%"/></linearGradient></defs><path style="transform:translate(0, 0px); opacity:1" fill="url(#sw-gradient-0)" d="M0,441L40,400.2C80,359,160,278,240,228.7C320,180,400,163,480,179.7C560,196,640,245,720,220.5C800,196,880,98,960,73.5C1040,49,1120,98,1200,114.3C1280,131,1360,114,1440,138.8C1520,163,1600,229,1680,212.3C1760,196,1840,98,1920,57.2C2000,16,2080,33,2160,49C2240,65,2320,82,2400,114.3C2480,147,2560,196,2640,245C2720,294,2800,343,2880,343C2960,343,3040,294,3120,261.3C3200,229,3280,212,3360,220.5C3440,229,3520,261,3600,269.5C3680,278,3760,261,3840,236.8C3920,212,4000,180,4080,163.3C4160,147,4240,147,4320,155.2C4400,163,4480,180,4560,212.3C4640,245,4720,294,4800,277.7C4880,261,4960,180,5040,196C5120,212,5200,327,5280,318.5C5360,310,5440,180,5520,122.5C5600,65,5680,82,5720,89.8L5760,98L5760,490L5720,490C5680,490,5600,490,5520,490C5440,490,5360,490,5280,490C5200,490,5120,490,5040,490C4960,490,4880,490,4800,490C4720,490,4640,490,4560,490C4480,490,4400,490,4320,490C4240,490,4160,490,4080,490C4000,490,3920,490,3840,490C3760,490,3680,490,3600,490C3520,490,3440,490,3360,490C3280,490,3200,490,3120,490C3040,490,2960,490,2880,490C2800,490,2720,490,2640,490C2560,490,2480,490,2400,490C2320,490,2240,490,2160,490C2080,490,2000,490,1920,490C1840,490,1760,490,1680,490C1600,490,1520,490,1440,490C1360,490,1280,490,1200,490C1120,490,1040,490,960,490C880,490,800,490,720,490C640,490,560,490,480,490C400,490,320,490,240,490C160,490,80,490,40,490L0,490Z"/><defs><linearGradient id="sw-gradient-1" x1="0" x2="0" y1="1" y2="0"><stop stop-color="rgba(255, 255, 255, 1)" offset="0%"/><stop stop-color="rgba(242, 243, 250, 1)" offset="100%"/></linearGradient></defs><path style="transform:translate(0, 50px); opacity:0.9" fill="url(#sw-gradient-1)" d="M0,147L40,171.5C80,196,160,245,240,253.2C320,261,400,229,480,220.5C560,212,640,229,720,245C800,261,880,278,960,261.3C1040,245,1120,196,1200,204.2C1280,212,1360,278,1440,269.5C1520,261,1600,180,1680,130.7C1760,82,1840,65,1920,73.5C2000,82,2080,114,2160,179.7C2240,245,2320,343,2400,351.2C2480,359,2560,278,2640,277.7C2720,278,2800,359,2880,392C2960,425,3040,408,3120,383.8C3200,359,3280,327,3360,261.3C3440,196,3520,98,3600,89.8C3680,82,3760,163,3840,163.3C3920,163,4000,82,4080,106.2C4160,131,4240,261,4320,261.3C4400,261,4480,131,4560,138.8C4640,147,4720,294,4800,334.8C4880,376,4960,310,5040,245C5120,180,5200,114,5280,147C5360,180,5440,310,5520,359.3C5600,408,5680,376,5720,359.3L5760,343L5760,490L5720,490C5680,490,5600,490,5520,490C5440,490,5360,490,5280,490C5200,490,5120,490,5040,490C4960,490,4880,490,4800,490C4720,490,4640,490,4560,490C4480,490,4400,490,4320,490C4240,490,4160,490,4080,490C4000,490,3920,490,3840,490C3760,490,3680,490,3600,490C3520,490,3440,490,3360,490C3280,490,3200,490,3120,490C3040,490,2960,490,2880,490C2800,490,2720,490,2640,490C2560,490,2480,490,2400,490C2320,490,2240,490,2160,490C2080,490,2000,490,1920,490C1840,490,1760,490,1680,490C1600,490,1520,490,1440,490C1360,490,1280,490,1200,490C1120,490,1040,490,960,490C880,490,800,490,720,490C640,490,560,490,480,490C400,490,320,490,240,490C160,490,80,490,40,490L0,490Z"/></svg>