<?xml version="1.0" standalone="no"?>
<svg xmlns:xlink="http://www.w3.org/1999/xlink" id="wave" style="transform:rotate(0deg); transition: 0.3s" viewBox="0 0 1440 490" version="1.1" xmlns="http://www.w3.org/2000/svg"><defs><linearGradient id="sw-gradient-0" x1="0" x2="0" y1="1" y2="0"><stop stop-color="rgba(242, 243, 250, 1)" offset="0%"/><stop stop-color="rgba(242, 243, 250, 1)" offset="100%"/></linearGradient></defs><path style="transform:translate(0, 0px); opacity:1" fill="url(#sw-gradient-0)" d="M0,0L360,49L720,392L1080,245L1440,441L1800,392L2160,343L2520,245L2880,49L3240,441L3600,49L3960,0L4320,294L4680,196L5040,196L5400,0L5760,392L6120,147L6480,196L6840,245L7200,294L7560,245L7920,294L8280,245L8640,343L8640,490L8280,490L7920,490L7560,490L7200,490L6840,490L6480,490L6120,490L5760,490L5400,490L5040,490L4680,490L4320,490L3960,490L3600,490L3240,490L2880,490L2520,490L2160,490L1800,490L1440,490L1080,490L720,490L360,490L0,490Z"/><defs><linearGradient id="sw-gradient-1" x1="0" x2="0" y1="1" y2="0"><stop stop-color="rgba(255, 255, 255, 1)" offset="0%"/><stop stop-color="rgba(242, 243, 250, 1)" offset="100%"/></linearGradient></defs><path style="transform:translate(0, 50px); opacity:0.9" fill="url(#sw-gradient-1)" d="M0,343L360,98L720,245L1080,147L1440,196L1800,343L2160,147L2520,147L2880,0L3240,441L3600,294L3960,441L4320,441L4680,441L5040,343L5400,49L5760,0L6120,343L6480,343L6840,392L7200,343L7560,392L7920,0L8280,196L8640,98L8640,490L8280,490L7920,490L7560,490L7200,490L6840,490L6480,490L6120,490L5760,490L5400,490L5040,490L4680,490L4320,490L3960,490L3600,490L3240,490L2880,490L2520,490L2160,490L1800,490L1440,490L1080,490L720,490L360,490L0,490Z"/></svg>