<?xml version="1.0" standalone="no"?><svg xmlns="http://www.w3.org/2000/svg" viewBox="0 0 1440 320"><path fill="#f2f3fa" fill-opacity="1" d="M0,160L34.3,138.7C68.6,117,137,75,206,96C274.3,117,343,203,411,240C480,277,549,267,617,229.3C685.7,192,754,128,823,112C891.4,96,960,128,1029,144C1097.1,160,1166,160,1234,176C1302.9,192,1371,224,1406,240L1440,256L1440,0L1405.7,0C1371.4,0,1303,0,1234,0C1165.7,0,1097,0,1029,0C960,0,891,0,823,0C754.3,0,686,0,617,0C548.6,0,480,0,411,0C342.9,0,274,0,206,0C137.1,0,69,0,34,0L0,0Z"></path></svg>